<?xml version="1.0" encoding="utf-8"?>
<!-- Generator: Adobe Illustrator 20.1.0, SVG Export Plug-In . SVG Version: 6.00 Build 0)  -->
<svg version="1.1" id="logo" xmlns="http://www.w3.org/2000/svg" xmlns:xlink="http://www.w3.org/1999/xlink" x="0px" y="0px"
	 viewBox="0 0 160.02 51.29" style="enable-background:new 0 0 160.02 51.29;" xml:space="preserve">
<style type="text/css">
	.st0{fill:#FFFFFF;}
	.st1{fill:#CC0000;}
</style>
<title>Red_Hat_RGB_reverse</title>
<g>
	<g id="white">
		<path class="st0" d="M47.31,39.51c-2.58-0.61-5.28-0.45-7.77,0.45c-0.14,0.08-0.23,0.21-0.24,0.37c-0.02,0.05-0.02,0.11,0,0.16
			c0.16,0.41-0.08,0.85-1.26,1.14c-1.75,0.37-2.85,2.2-3.5,2.81c-0.65,0.61-2.85,1.14-2.52,0.73c0.66-0.75,1.25-1.57,1.75-2.44
			c0.53-1,1-1.26,1.59-2.2c0.47-0.61,0.84-1.28,1.1-2c0.14-0.68,0.22-1.38,0.24-2.08c0.28-0.8,0.51-1.61,0.69-2.44
			c0-0.41-1.63,0.57-2.4,0.57c-0.77,0-1.55-0.45-2.24-0.49c-0.85,0-1.42,0.65-2.2,0.53c-0.51-0.23-1.04-0.39-1.59-0.49
			c-1.1,0-2.44,0.61-5,0.53s-4.8-3.17-5.13-3.66s-0.81-0.57-1.3-0.12c-0.35,0.3-0.88,0.26-1.18-0.1c-0.03-0.03-0.05-0.07-0.08-0.1
			c-0.33-0.57-1.22-2.24-2.56-2.6c-1.07-0.37-2.24,0.21-2.6,1.28c-0.11,0.31-0.14,0.64-0.09,0.96c0.12,1.22,0.94,1.59,1.3,2.24
			c0.24,0.6,0.69,1.09,1.26,1.38c0.49,0.2,0.69,0.53,0.53,0.9c-0.16,0.37-0.65,0.45-1,0.45c-0.56,0.05-1.12-0.1-1.59-0.41
			c-0.48-0.34-0.87-0.78-1.14-1.3c-0.41-0.65-1.14-1.03-1.91-1c-0.37,0-0.73,0.08-1.06,0.24c-1.32,0.68-2.79,1.02-4.27,1H1.36
			c4.55,13.44,19.13,20.65,32.57,16.1c5.48-1.86,10.18-5.51,13.32-10.36L47.31,39.51z"/>
	</g>
	<path class="st0" d="M51.17,38.13h0.24l0.37,0.57h0.24l-0.37-0.57c0.2,0,0.33-0.12,0.33-0.37c0-0.25-0.16-0.37-0.45-0.37h-0.49
		v1.34h0.2v-0.61L51.17,38.13z M51.17,37.97v-0.41h0.28c0.12,0,0.28,0,0.28,0.2s-0.16,0.2-0.33,0.2L51.17,37.97z"/>
	<path class="st0" d="M52.72,38.05c0,0.72-0.58,1.3-1.3,1.3c-0.72,0-1.3-0.58-1.3-1.3c0-0.72,0.58-1.3,1.3-1.3c0,0,0,0,0,0
		C52.13,36.77,52.7,37.34,52.72,38.05z M51.42,36.99c-0.58-0.01-1.05,0.46-1.06,1.04c0,0.01,0,0.01,0,0.02
		c0,0.59,0.47,1.06,1.06,1.06c0.59,0,1.06-0.47,1.06-1.06C52.48,37.46,52,36.99,51.42,36.99L51.42,36.99z"/>
	<path d="M47.31,39.51c-2.58-0.61-5.28-0.45-7.77,0.45c-0.14,0.08-0.23,0.21-0.24,0.37c-0.02,0.05-0.02,0.11,0,0.16
		c0.16,0.41-0.08,0.85-1.26,1.14c-1.75,0.37-2.85,2.2-3.5,2.81c-0.65,0.61-2.85,1.14-2.52,0.73c0.66-0.75,1.25-1.57,1.75-2.44
		c0.53-1,1-1.26,1.59-2.2c0.47-0.61,0.84-1.28,1.1-2c0.14-0.68,0.22-1.38,0.24-2.08c0.28-0.8,0.51-1.61,0.69-2.44
		c0-0.41-1.63,0.57-2.4,0.57c-0.77,0-1.55-0.45-2.24-0.49c-0.85,0-1.42,0.65-2.2,0.53c-0.51-0.23-1.04-0.39-1.59-0.49
		c-1.1,0-2.44,0.61-5,0.53s-4.8-3.17-5.13-3.66s-0.81-0.57-1.3-0.12c-0.35,0.3-0.88,0.26-1.18-0.1c-0.03-0.03-0.05-0.07-0.08-0.1
		c-0.33-0.57-1.22-2.24-2.56-2.6c-1.07-0.37-2.24,0.21-2.6,1.28c-0.11,0.31-0.14,0.64-0.09,0.96c0.12,1.22,0.94,1.59,1.3,2.24
		c0.36,0.65,0.57,1.1,1.26,1.38c0.49,0.2,0.69,0.49,0.53,0.9c-0.16,0.41-0.65,0.45-1,0.45c-0.56,0.05-1.12-0.1-1.59-0.41
		c-0.48-0.34-0.87-0.78-1.14-1.3c-0.41-0.65-1.14-1.03-1.91-1c-0.37,0-0.73,0.08-1.06,0.24c-1.32,0.68-2.79,1.02-4.27,1H1.36
		c-0.89-2.65-1.34-5.42-1.34-8.22C0.06,11.42,11.59-0.04,25.77,0.01c14.18,0.04,25.64,11.57,25.59,25.75
		c-0.02,4.91-1.44,9.71-4.1,13.84L47.31,39.51z"/>
	<path class="st0" d="M64.51,27.18c0-2.36,0-4.07-0.16-5.66h3.87l0.16,3.34h0.12c0.64-2.14,2.57-3.64,4.8-3.74
		c0.36-0.02,0.71,0.01,1.06,0.08v4.19c-0.44-0.09-0.89-0.13-1.34-0.12c-2-0.06-3.72,1.4-4,3.38c-0.08,0.44-0.12,0.89-0.12,1.34v9.12
		h-4.44L64.51,27.18z"/>
	<path class="st0" d="M79.74,31.54c0.12,3.17,2.6,4.6,5.45,4.6c1.65,0.03,3.29-0.25,4.84-0.81l0.65,3.05
		c-1.95,0.78-4.05,1.15-6.15,1.1c-5.7,0-9.08-3.54-9.08-8.91c0-4.84,2.93-9.44,8.59-9.44c5.66,0,7.57,4.72,7.57,8.55
		c0.01,0.64-0.05,1.28-0.16,1.91L79.74,31.54z M87.47,28.41c0-1.63-0.69-4.27-3.66-4.27c-2.73,0-3.87,2.48-4.07,4.27H87.47z"/>
	<path class="st0" d="M106.39,31.5c0,0.44-0.04,0.87-0.12,1.3c-0.39,1.82-1.97,3.13-3.83,3.17c-2.81,0-4.4-2.36-4.4-5.58
		s1.59-5.78,4.44-5.78c1.85,0.01,3.45,1.32,3.83,3.13c0.07,0.39,0.09,0.78,0.08,1.18v2.56L106.39,31.5z M110.83,14.77l-4.44-1.26
		v9.93h-0.08c-0.77-1.3-2.52-2.28-4.93-2.28c-4.23,0-7.9,3.5-7.9,9.4c0,5.41,3.34,9,7.53,9c2.34,0.09,4.54-1.13,5.7-3.17h0.08
		l0.2,2.77h3.95c-0.08-1.18-0.16-3.13-0.16-4.93V14.77H110.83z"/>
	<path class="st0" d="M122.63,21.12c-1.25-0.02-2.48,0.33-3.54,1c-1.02,0.59-1.86,1.47-2.4,2.52h-0.08v-8.22l-1.75-0.53v23.19h1.75
		V28.32c-0.04-0.59,0.05-1.19,0.24-1.75c0.74-2.32,2.86-3.92,5.29-4c3.62,0,4.84,2.89,4.84,6.06v10.46h1.75V28.48
		C128.69,21.93,124.25,21.12,122.63,21.12z"/>
	<path class="st0" d="M144.31,34.96c-0.02,1.4,0.06,2.8,0.24,4.19h-1.59l-0.24-2.52h-0.1c-1.26,1.86-3.37,2.96-5.62,2.93
		c-2.65,0.22-4.98-1.76-5.19-4.41c-0.01-0.14-0.02-0.28-0.02-0.43c0-4.07,3.58-6.51,10.75-6.43V27.8c0-1.75-0.33-5.21-4.52-5.17
		c-1.58-0.02-3.12,0.43-4.44,1.3l-0.57-1.26c1.54-0.99,3.34-1.52,5.17-1.51c5.09,0,6.06,3.83,6.06,7V35L144.31,34.96z M142.62,29.71
		c-3.83-0.12-8.91,0.49-8.91,4.68c-0.17,1.84,1.18,3.47,3.02,3.65c0.16,0.01,0.32,0.02,0.48,0.01c2.32,0.08,4.43-1.35,5.21-3.54
		c0.11-0.34,0.16-0.7,0.16-1.06v-3.74H142.62z"/>
	<path class="st0" d="M151.27,17.62v3.87h5v1.42h-5v11.44c0,2.24,0.69,3.62,2.6,3.62c0.68,0.02,1.35-0.07,2-0.28l0.2,1.34
		c-0.78,0.3-1.61,0.44-2.44,0.41c-1.14,0.06-2.25-0.41-3.01-1.27c-0.81-0.94-1.06-2.4-1.06-4.19V22.83h-3v-1.42h3v-3.26
		L151.27,17.62z"/>
	<path class="st0" d="M158.48,38.17h0.24l0.37,0.57h0.24l-0.37-0.57c0.2,0,0.33-0.12,0.33-0.37c0-0.25-0.16-0.37-0.49-0.37h-0.49
		v1.34h0.2v-0.61L158.48,38.17z M158.48,38.01V37.6h0.28c0.12,0,0.28,0,0.28,0.2c0,0.2-0.16,0.2-0.33,0.2L158.48,38.01z"/>
	<path class="st0" d="M160.02,38.09c0,0.72-0.58,1.3-1.3,1.3c-0.72,0-1.3-0.58-1.3-1.3c0-0.72,0.58-1.3,1.3-1.3h0
		C159.44,36.79,160.01,37.37,160.02,38.09z M158.72,37.03c-0.58-0.01-1.05,0.46-1.06,1.04c0,0.01,0,0.01,0,0.02
		c0,0.59,0.47,1.06,1.06,1.06c0.59,0,1.06-0.47,1.06-1.06C159.78,37.5,159.31,37.03,158.72,37.03L158.72,37.03z"/>
	<path d="M31.39,37.15c0.24,0.32,0.28,0.75,0.08,1.1c-0.16,0.28-0.36,0.53-0.61,0.73c-0.59,0.45-1.41,0.45-2,0
		c-0.53-0.33-0.57-0.45-1.26-0.37c-0.53,0.08-0.73-0.45-0.53-0.9c0.2-0.45,0.94-0.77,1.87-0.24c0.41,0.24,1.1,0.77,1.67,0.33
		c0.26-0.22,0.5-0.45,0.73-0.69l0,0C31.35,37.15,31.39,37.15,31.39,37.15z"/>
	<path id="red" class="st1" d="M23.74,12.12c-3,0.2-3.26,0.53-3.83,1.14c-0.77,0.85-1.83-1.1-1.83-1.1
		c-0.84-0.28-1.3-1.19-1.01-2.04c0-0.01,0.01-0.03,0.01-0.04c0.41-0.94,1.14-0.65,1.38-0.37c0.38,0.55,1,0.88,1.67,0.9
		c0.77,0,1.67-0.2,2.93-0.2s2.12,0.49,2.16,0.9C25.26,11.72,25.16,12,23.74,12.12z M26.87,7.19L26.87,7.19
		c-0.04,0-0.08-0.04-0.08-0.08c0,0,0,0,0-0.08c0.76-0.34,1.57-0.56,2.4-0.65c0.28-0.02,0.57-0.02,0.85,0h0.16
		c1.63,0,3,0.69,2.93,1.47c-0.07,0.78-1.38,1.38-3,1.34c-0.5,0-0.99-0.07-1.47-0.2c0,0-0.08,0-0.08-0.12c0-0.12,0-0.08,0.08-0.12
		c1-0.24,1.71-0.61,1.67-1c-0.04-0.39-1.42-0.73-3-0.61C27.18,7.18,27.03,7.2,26.87,7.19L26.87,7.19z M40.22,18.71
		c-0.26,1.23-1.09,2.26-2.24,2.77c-0.24,0.12-0.33-0.08-0.2-0.24c0.35-0.54,0.66-1.11,0.9-1.71c0.33-1.05,0.29-2.19-0.12-3.22
		c-1-3.46-3-8.14-4.44-9.65c-1.44-1.51-4-1.87-6.31-1.26c-1.79,0.71-3.75,0.85-5.62,0.41c-5.37-1.22-6.15,1.47-6.47,2.65
		c-0.32,1.18-1.06,4.48-1.06,4.48c-0.24,1.34-0.57,3.7,7.73,5.29c3.87,0.73,4.07,1.75,4.23,2.44c0.15,0.93,0.62,1.78,1.34,2.4
		c0.57,0.37,0,0.69-0.61,0.73c-1.67,0.16-7.73-1.59-11.36-3.62c-2.93-1.79-3-3.42-2.32-4.8c-4.44-0.49-7.81,0.41-8.43,2.52
		c-1.06,3.62,8,9.81,18.19,12.9c10.75,3.26,21.81,1,22.99-5.78c0.75-3.05-1.78-5.33-6.21-6.3V18.71z"/>
</g>
</svg>
