<?xml version="1.0" encoding="utf-8"?>
<!-- Generator: Adobe Illustrator 22.0.0, SVG Export Plug-In . SVG Version: 6.00 Build 0)  -->
<svg version="1.1" id="Layer_1" xmlns="http://www.w3.org/2000/svg" xmlns:xlink="http://www.w3.org/1999/xlink" x="0px" y="0px"
	 viewBox="0 0 275 11" style="enable-background:new 0 0 275 11;" xml:space="preserve">
<style type="text/css">
	.st0{fill:#FFFFFF;}
</style>
<g>
	<g>
		<g>
			<path class="st0" d="M6.2,10.8L4.5,7.3H3.3v3.6H0.4V0.3h4.7c0.6,0,1.2,0.1,1.7,0.2c0.5,0.1,0.9,0.3,1.3,0.6
				C8.5,1.3,8.8,1.7,9,2.1c0.2,0.4,0.3,1,0.3,1.6c0,0.8-0.2,1.4-0.5,1.9C8.4,6.2,7.9,6.5,7.4,6.8l2.1,4H6.2z M6.1,3
				c-0.2-0.2-0.5-0.3-1-0.3H3.3V5H5c0.5,0,0.8-0.1,1-0.3c0.2-0.2,0.3-0.5,0.3-0.9C6.3,3.5,6.2,3.2,6.1,3z"/>
		</g>
		<g>
			<path class="st0" d="M11.2,10.8V0.3h8.1v2.5h-5.2v1.4h3.1v2.4h-3.1v1.8h5.3v2.5H11.2z"/>
		</g>
		<g>
			<path class="st0" d="M30,8c-0.2,0.7-0.6,1.2-1.1,1.6c-0.5,0.4-1.1,0.7-1.8,0.9c-0.7,0.2-1.5,0.3-2.5,0.3h-3.4V0.3H25
				c0.8,0,1.6,0.1,2.2,0.3c0.7,0.2,1.2,0.5,1.7,0.9C29.4,1.8,29.7,2.3,30,3c0.3,0.7,0.4,1.5,0.4,2.5C30.4,6.5,30.3,7.3,30,8z
				 M27.3,4.3c-0.1-0.4-0.2-0.6-0.4-0.9c-0.2-0.2-0.4-0.4-0.8-0.5c-0.3-0.1-0.7-0.2-1.1-0.2h-0.7v5.5h0.6c0.5,0,0.8,0,1.2-0.1
				c0.3-0.1,0.6-0.3,0.8-0.5c0.2-0.2,0.4-0.5,0.4-0.9c0.1-0.4,0.1-0.8,0.1-1.3C27.4,5.1,27.3,4.6,27.3,4.3z"/>
		</g>
		<g>
			<path class="st0" d="M42.8,10.8V6.7h-3.3v4.2h-3V0.3h3v3.8h3.3V0.3h3v10.5H42.8z"/>
		</g>
		<g>
			<path class="st0" d="M54.7,10.8L54.1,9H51l-0.6,1.9h-3.1l3.8-10.5h3l3.8,10.5H54.7z M53.2,6c-0.1-0.3-0.2-0.6-0.2-0.9
				c-0.1-0.3-0.1-0.5-0.2-0.7c-0.1-0.2-0.1-0.4-0.1-0.5c0-0.2-0.1-0.3-0.1-0.5c0,0.2-0.1,0.4-0.1,0.5c0,0.2-0.1,0.4-0.1,0.6
				c-0.1,0.2-0.1,0.4-0.2,0.7C52,5.3,52,5.6,51.9,6l-0.2,0.7h1.7L53.2,6z"/>
		</g>
		<g>
			<path class="st0" d="M63.4,2.8v8h-2.9v-8h-3V0.3h8.8v2.5H63.4z"/>
		</g>
	</g>
	<g>
		<path class="st0" d="M69.8,1.8c-0.1,0.1-0.1,0.2-0.2,0.3c-0.1,0.1-0.2,0.2-0.3,0.2c-0.1,0.1-0.3,0.1-0.4,0.1c-0.2,0-0.3,0-0.4-0.1
			c-0.1-0.1-0.2-0.1-0.3-0.2C68,2,67.9,1.9,67.8,1.8c-0.1-0.1-0.1-0.3-0.1-0.4c0-0.2,0-0.3,0.1-0.4C67.9,0.8,68,0.7,68,0.6
			c0.1-0.1,0.2-0.2,0.3-0.2c0.1-0.1,0.3-0.1,0.4-0.1c0.2,0,0.3,0,0.4,0.1c0.1,0.1,0.2,0.1,0.3,0.2c0.1,0.1,0.2,0.2,0.2,0.3
			c0.1,0.1,0.1,0.3,0.1,0.4C69.9,1.5,69.8,1.6,69.8,1.8z M69.6,1c0-0.1-0.1-0.2-0.2-0.3c-0.1-0.1-0.2-0.1-0.3-0.2
			c-0.1,0-0.2-0.1-0.4-0.1c-0.1,0-0.2,0-0.4,0.1c-0.1,0-0.2,0.1-0.3,0.2C68.1,0.8,68,0.9,68,1c0,0.1-0.1,0.2-0.1,0.3
			c0,0.1,0,0.2,0.1,0.4c0,0.1,0.1,0.2,0.2,0.3c0.1,0.1,0.2,0.1,0.3,0.2c0.1,0,0.2,0.1,0.4,0.1c0.1,0,0.2,0,0.4-0.1
			c0.1,0,0.2-0.1,0.3-0.2c0.1-0.1,0.1-0.2,0.2-0.3c0-0.1,0.1-0.2,0.1-0.4C69.7,1.2,69.7,1.1,69.6,1z M69.2,1.3
			c0,0.1-0.1,0.1-0.2,0.1l0.2,0.5H69l-0.2-0.4h-0.2v0.4h-0.2V0.7h0.5c0,0,0.1,0,0.1,0c0,0,0.1,0,0.1,0.1c0,0,0.1,0.1,0.1,0.1
			c0,0,0,0.1,0,0.2C69.3,1.2,69.3,1.2,69.2,1.3z M69,1c0,0-0.1,0-0.1,0h-0.3v0.3h0.3c0.1,0,0.1,0,0.1,0c0,0,0.1-0.1,0.1-0.1
			C69.1,1,69.1,1,69,1z"/>
	</g>
	<g>
		<path class="st0" d="M74.1,10.8V0.2H81v1.6h-5.3v2.6h3.1v1.6h-3.1v3.4h5.5v1.6H74.1z"/>
		<path class="st0" d="M90.1,10.8l-4.3-6.7c-0.1-0.2-0.3-0.4-0.4-0.7C85.2,3.2,85.1,3,85,2.8c0,0.1,0,0.3,0,0.5c0,0.2,0,0.4,0,0.7
			c0,0.2,0,0.5,0,0.7c0,0.2,0,0.4,0,0.6v5.5h-1.6V0.2h1.6l4.1,6.5c0.1,0.1,0.1,0.2,0.2,0.4c0.1,0.1,0.2,0.3,0.3,0.4
			c0.1,0.1,0.2,0.3,0.2,0.4C90,8,90,8.1,90.1,8.2c0-0.1,0-0.3,0-0.5c0-0.2,0-0.5,0-0.7c0-0.2,0-0.5,0-0.7c0-0.2,0-0.4,0-0.6V0.2h1.6
			v10.7H90.1z"/>
		<path class="st0" d="M98.4,1.7v9.1h-1.6V1.7h-3.1V0.2h7.8v1.6H98.4z"/>
		<path class="st0" d="M103.7,10.8V0.2h1.6v10.7H103.7z"/>
		<path class="st0" d="M112.2,1.7v9.1h-1.6V1.7h-3.1V0.2h7.8v1.6H112.2z"/>
		<path class="st0" d="M117.4,10.8V0.2h1.6v9.1h5.3v1.6H117.4z"/>
		<path class="st0" d="M126.5,10.8V0.2h6.9v1.6h-5.3v2.6h3.1v1.6h-3.1v3.4h5.5v1.6H126.5z"/>
		<path class="st0" d="M143.8,10.8V5.2c0-0.2,0-0.3,0-0.5c0-0.2,0-0.4,0-0.5c0-0.2,0-0.3,0-0.5c0-0.1,0-0.3,0-0.3
			c-0.1,0.2-0.2,0.4-0.3,0.7c-0.1,0.3-0.3,0.6-0.4,1l-2.6,6L138,5c-0.1-0.3-0.3-0.6-0.4-1c-0.1-0.3-0.2-0.6-0.3-0.7
			c0,0.1,0,0.2,0,0.3c0,0.1,0,0.3,0,0.5c0,0.2,0,0.4,0,0.5c0,0.2,0,0.4,0,0.5v5.6h-1.5V0.2h1.6l2.4,5.7c0.1,0.3,0.3,0.6,0.4,1
			c0.1,0.3,0.2,0.6,0.3,0.9c0.1-0.2,0.2-0.5,0.3-0.8c0.1-0.3,0.3-0.7,0.4-1l2.4-5.7h1.7v10.7H143.8z"/>
		<path class="st0" d="M148.2,10.8V0.2h6.9v1.6h-5.3v2.6h3.1v1.6h-3.1v3.4h5.5v1.6H148.2z"/>
		<path class="st0" d="M164.1,10.8l-4.3-6.7c-0.1-0.2-0.3-0.4-0.4-0.7c-0.2-0.3-0.3-0.5-0.4-0.6c0,0.1,0,0.3,0,0.5
			c0,0.2,0,0.4,0,0.7c0,0.2,0,0.5,0,0.7c0,0.2,0,0.4,0,0.6v5.5h-1.6V0.2h1.6l4.1,6.5c0.1,0.1,0.1,0.2,0.2,0.4
			c0.1,0.1,0.2,0.3,0.3,0.4c0.1,0.1,0.2,0.3,0.2,0.4c0.1,0.1,0.1,0.2,0.2,0.3c0-0.1,0-0.3,0-0.5c0-0.2,0-0.5,0-0.7
			c0-0.2,0-0.5,0-0.7c0-0.2,0-0.4,0-0.6V0.2h1.6v10.7H164.1z"/>
		<path class="st0" d="M172.4,1.7v9.1h-1.6V1.7h-3.1V0.2h7.8v1.6H172.4z"/>
		<path class="st0" d="M184.2,9.1c-0.2,0.4-0.4,0.7-0.7,1c-0.3,0.3-0.7,0.5-1.2,0.7c-0.5,0.2-1.1,0.2-1.8,0.2
			c-0.8,0-1.5-0.2-2.1-0.5c-0.6-0.3-1.2-0.7-1.7-1.3l1.1-1.1c0.4,0.4,0.8,0.7,1.3,0.9c0.5,0.2,1,0.3,1.5,0.3c1.5,0,2.2-0.5,2.2-1.6
			c0-0.2,0-0.4-0.1-0.5c-0.1-0.2-0.2-0.3-0.4-0.4c-0.2-0.1-0.4-0.3-0.7-0.4c-0.3-0.1-0.7-0.2-1.1-0.4c-0.6-0.2-1.1-0.3-1.5-0.5
			c-0.4-0.2-0.8-0.4-1-0.6c-0.3-0.2-0.5-0.5-0.6-0.8c-0.1-0.3-0.2-0.7-0.2-1.2c0-0.5,0.1-0.9,0.3-1.2c0.2-0.4,0.4-0.7,0.7-0.9
			c0.3-0.3,0.7-0.4,1.1-0.6c0.4-0.1,0.9-0.2,1.4-0.2c0.7,0,1.4,0.1,1.9,0.4s1.1,0.6,1.6,1.1l-1.1,1.1c-0.3-0.3-0.7-0.6-1.1-0.8
			s-0.9-0.3-1.4-0.3c-0.6,0-1.1,0.1-1.4,0.4c-0.3,0.3-0.4,0.6-0.4,0.9c0,0.2,0,0.3,0.1,0.5c0.1,0.1,0.2,0.3,0.4,0.4
			c0.2,0.1,0.4,0.3,0.7,0.4c0.3,0.1,0.7,0.2,1.1,0.4c0.5,0.2,1,0.3,1.4,0.5c0.4,0.2,0.8,0.4,1.1,0.6c0.3,0.2,0.5,0.5,0.7,0.9
			c0.2,0.3,0.2,0.7,0.2,1.2S184.3,8.7,184.2,9.1z"/>
		<path class="st0" d="M198.4,5.4c-0.4,0.5-1,0.9-1.7,1.1l2.2,4.4H197l-2.1-4.2h-2.4v4.2h-1.6V0.2h4.7c0.5,0,0.9,0.1,1.3,0.2
			c0.4,0.1,0.8,0.3,1.1,0.6c0.3,0.3,0.6,0.6,0.7,1c0.2,0.4,0.3,0.9,0.3,1.4C199,4.2,198.8,4.9,198.4,5.4z M196.9,2.1
			c-0.3-0.3-0.8-0.4-1.3-0.4h-3.1v3.4h3.1c0.5,0,1-0.1,1.3-0.4c0.3-0.3,0.5-0.7,0.5-1.3C197.4,2.8,197.2,2.4,196.9,2.1z"/>
		<path class="st0" d="M201.5,10.8V0.2h6.9v1.6h-5.3v2.6h3.1v1.6h-3.1v3.4h5.5v1.6H201.5z"/>
		<path class="st0" d="M218.5,5c-0.2,0.4-0.4,0.8-0.7,1.1c-0.3,0.3-0.7,0.5-1.1,0.6c-0.4,0.1-0.9,0.2-1.4,0.2h-2.8v4h-1.6V0.2h4.5
			c0.5,0,0.9,0.1,1.4,0.2c0.4,0.1,0.8,0.4,1.1,0.6c0.3,0.3,0.5,0.6,0.7,1s0.3,0.9,0.3,1.4C218.8,4.1,218.7,4.5,218.5,5z M216.6,2.1
			c-0.3-0.3-0.8-0.5-1.3-0.5h-2.9v3.7h2.9c0.6,0,1.1-0.2,1.4-0.5c0.3-0.3,0.5-0.8,0.5-1.4C217.1,2.9,217,2.5,216.6,2.1z"/>
		<path class="st0" d="M229.1,7.7c-0.2,0.7-0.5,1.3-0.9,1.7c-0.4,0.5-0.9,0.9-1.4,1.1c-0.6,0.3-1.2,0.4-1.9,0.4
			c-0.7,0-1.3-0.1-1.8-0.4c-0.6-0.3-1-0.6-1.4-1.1c-0.4-0.5-0.7-1.1-0.9-1.7c-0.2-0.7-0.3-1.4-0.3-2.3c0-0.8,0.1-1.6,0.3-2.3
			s0.5-1.3,0.9-1.7c0.4-0.5,0.9-0.9,1.4-1.1c0.6-0.3,1.2-0.4,1.8-0.4c0.7,0,1.3,0.1,1.9,0.4c0.6,0.3,1,0.6,1.4,1.1
			c0.4,0.5,0.7,1.1,0.9,1.7c0.2,0.7,0.3,1.4,0.3,2.3S229.3,7.1,229.1,7.7z M227.5,3.9c-0.1-0.5-0.4-0.9-0.6-1.2
			c-0.3-0.3-0.6-0.6-0.9-0.8c-0.4-0.2-0.8-0.3-1.2-0.3c-0.4,0-0.8,0.1-1.2,0.3c-0.4,0.2-0.7,0.4-0.9,0.8c-0.3,0.3-0.5,0.7-0.6,1.2
			c-0.1,0.5-0.2,1-0.2,1.6s0.1,1.2,0.2,1.6c0.1,0.5,0.4,0.9,0.6,1.2c0.3,0.3,0.6,0.6,0.9,0.8c0.4,0.2,0.8,0.3,1.2,0.3
			c0.4,0,0.8-0.1,1.2-0.3c0.3-0.2,0.7-0.4,0.9-0.8c0.3-0.3,0.5-0.7,0.6-1.2c0.1-0.5,0.2-1,0.2-1.6C227.8,4.9,227.7,4.4,227.5,3.9z"
			/>
		<path class="st0" d="M239.1,5.4c-0.4,0.5-1,0.9-1.7,1.1l2.2,4.4h-1.8l-2.1-4.2h-2.4v4.2h-1.6V0.2h4.7c0.5,0,0.9,0.1,1.3,0.2
			c0.4,0.1,0.8,0.3,1.1,0.6c0.3,0.3,0.6,0.6,0.7,1c0.2,0.4,0.3,0.9,0.3,1.4C239.7,4.2,239.5,4.9,239.1,5.4z M237.6,2.1
			c-0.3-0.3-0.8-0.4-1.3-0.4h-3.1v3.4h3.1c0.5,0,1-0.1,1.3-0.4c0.3-0.3,0.5-0.7,0.5-1.3C238.1,2.8,238,2.4,237.6,2.1z"/>
		<path class="st0" d="M245.9,1.7v9.1h-1.6V1.7h-3.1V0.2h7.8v1.6H245.9z"/>
		<path class="st0" d="M251.2,10.8V0.2h1.6v10.7H251.2z"/>
		<path class="st0" d="M262.2,10.8L258,4.1c-0.1-0.2-0.3-0.4-0.4-0.7s-0.3-0.5-0.4-0.6c0,0.1,0,0.3,0,0.5c0,0.2,0,0.4,0,0.7
			c0,0.2,0,0.5,0,0.7c0,0.2,0,0.4,0,0.6v5.5h-1.6V0.2h1.6l4.1,6.5c0.1,0.1,0.1,0.2,0.2,0.4c0.1,0.1,0.2,0.3,0.3,0.4
			c0.1,0.1,0.2,0.3,0.2,0.4c0.1,0.1,0.1,0.2,0.2,0.3c0-0.1,0-0.3,0-0.5c0-0.2,0-0.5,0-0.7c0-0.2,0-0.5,0-0.7c0-0.2,0-0.4,0-0.6V0.2
			h1.6v10.7H262.2z"/>
		<path class="st0" d="M274.3,8.5c-0.2,0.5-0.5,1-0.8,1.4c-0.4,0.4-0.8,0.7-1.3,0.9c-0.5,0.2-1,0.3-1.6,0.3c-0.7,0-1.3-0.1-1.9-0.4
			c-0.6-0.3-1-0.6-1.4-1.1c-0.4-0.5-0.7-1.1-0.9-1.7c-0.2-0.7-0.3-1.4-0.3-2.2c0-0.8,0.1-1.5,0.3-2.2c0.2-0.7,0.5-1.3,0.9-1.7
			c0.4-0.5,0.9-0.9,1.4-1.1c0.6-0.3,1.2-0.4,1.9-0.4c0.9,0,1.6,0.2,2.2,0.5c0.6,0.3,1.1,0.8,1.4,1.5l-1.4,0.9
			c-0.3-0.4-0.6-0.8-0.9-1c-0.3-0.2-0.8-0.3-1.3-0.3c-0.9,0-1.6,0.4-2.1,1.1c-0.5,0.7-0.7,1.7-0.7,2.8c0,1.2,0.2,2.1,0.7,2.8
			c0.5,0.7,1.2,1.1,2.1,1.1c0.4,0,0.8-0.1,1.1-0.2c0.3-0.1,0.6-0.3,0.7-0.5c0.2-0.2,0.3-0.5,0.4-0.8c0.1-0.3,0.1-0.6,0.1-0.9v0h-1.7
			V5.4h3.4v1.2C274.6,7.3,274.5,8,274.3,8.5z"/>
	</g>
</g>
</svg>
